<svg xmlns="http://www.w3.org/2000/svg" width="235" height="211" viewBox="0 0 235 211" fill="none">
  <g clip-path="url(#clip0_222_12)">
    <path fill-rule="evenodd" clip-rule="evenodd" d="M229.517 180.665C215.226 172.281 199.378 165.383 191.939 160.127C189.487 158.395 186.73 155.842 190.749 156.739C201.878 159.221 214.396 164.76 224.268 172.483C222.124 165.111 222.742 155.412 224.72 147.272C224.963 146.268 225.59 142.191 226.89 140.682C227.373 140.121 227.951 139.914 228.634 140.351C229.024 140.6 229.274 141.086 229.399 141.779C229.759 143.797 229.189 149.938 228.697 155.943C227.967 164.854 227.934 171.758 229.517 180.665Z" fill="#3463E5"/>
    <path fill-rule="evenodd" clip-rule="evenodd" d="M113.482 112.203C113.917 102.931 113.194 93.8439 111.506 84.7564C131.169 88.9229 149.687 98.9901 165.686 110.907C185.018 125.306 202.083 143.698 215.205 162.82C219.287 168.767 221.472 171.085 226.648 176.188C212.848 138.41 155.745 82.2188 109.784 79.4199C96.361 28.6166 38.8041 2.63631 2.48481 47.2173C37.4287 15.0714 86.6759 24.1368 104.833 79.3283C99.99 79.4532 95.2989 80.2241 90.8267 81.7303C80.2454 85.2936 70.2271 90.0719 63.5224 101.837C54.2211 118.157 58.4835 142.048 78.2904 147.702C102.115 154.502 112.557 131.966 113.482 112.203ZM106.588 85.1699C108.36 94.7072 109.01 104.833 108.358 114.498C107.308 130.074 100.392 144.425 85.4802 143.969C76.251 143.688 69.827 138.51 66.6829 130.893C55.3584 103.455 85.7297 83.2603 106.588 85.1699Z" fill="#3463E5"/>
  </g>
  <defs>
    <clipPath id="clip0_222_12">
      <rect width="210.745" height="181.793" fill="white" transform="translate(235 179.858) rotate(171.635)"/>
    </clipPath>
  </defs>
</svg>