<svg xmlns="http://www.w3.org/2000/svg" width="125" height="48" viewBox="0 0 125 48" fill="none">
  <g clip-path="url(#clip0_302_71)">
    <path d="M29.6235 0C24.7498 0 20.0757 1.93608 16.6294 5.38234L5.38234 16.6294C1.93608 20.0757 0 24.7498 0 29.6235C0 39.7726 8.22742 48 18.3765 48C23.2502 48 27.9243 46.0638 31.3706 42.6176L39.1502 34.8379C39.1502 34.8378 39.1504 34.8381 39.1502 34.8379L61.8176 12.1706C63.4635 10.5247 65.6958 9.6 68.0235 9.6C71.9205 9.6 75.2243 12.1399 76.3698 15.6545L83.5235 8.50074C80.26 3.38934 74.5376 0 68.0235 0C63.1498 0 58.4757 1.93608 55.0294 5.38234L24.5824 35.8294C22.9365 37.4754 20.7042 38.4 18.3765 38.4C13.5293 38.4 9.6 34.4707 9.6 29.6235C9.6 27.2958 10.5247 25.0635 12.1706 23.4176L23.4176 12.1706C25.0635 10.5247 27.2958 9.6 29.6235 9.6C33.5206 9.6 36.8243 12.14 37.9698 15.6547L45.1237 8.50091C41.8602 3.38944 36.1378 0 29.6235 0Z" fill="white"/>
    <path d="M62.9824 35.8294C61.3365 37.4754 59.1042 38.4 56.7765 38.4C52.88 38.4 49.5765 35.8608 48.4307 32.3467L41.2771 39.5003C44.5408 44.611 50.2629 48 56.7765 48C61.6502 48 66.3243 46.0638 69.7706 42.6176L100.218 12.1706C101.864 10.5247 104.096 9.6 106.424 9.6C111.271 9.6 115.2 13.5293 115.2 18.3765C115.2 20.7042 114.275 22.9365 112.629 24.5824L101.382 35.8294C99.7365 37.4754 97.5042 38.4 95.1765 38.4C91.2797 38.4 87.976 35.8603 86.8304 32.3459L79.6768 39.4997C82.9403 44.6109 88.6626 48 95.1765 48C100.05 48 104.724 46.0638 108.171 42.6176L119.418 31.3706C122.864 27.9243 124.8 23.2502 124.8 18.3765C124.8 8.22742 116.573 0 106.424 0C101.55 0 96.8757 1.93608 93.4295 5.38234L62.9824 35.8294Z" fill="white"/>
  </g>
  <defs>
    <clipPath id="clip0_302_71">
      <rect width="124.8" height="48" fill="white"/>
    </clipPath>
  </defs>
</svg>