<svg xmlns="http://www.w3.org/2000/svg" width="49" height="48" viewBox="0 0 49 48" fill="none">
  <path d="M26.7186 38.5339C26.7617 34.1282 25.6447 30.5455 24.2239 30.5315C22.803 30.5177 21.6163 34.078 21.5733 38.4836C21.5302 42.8893 22.6471 46.4721 24.0679 46.486C25.4888 46.4999 26.6756 42.9396 26.7186 38.5339Z" fill="white"/>
  <path d="M18.4782 37.5333C20.8965 33.8504 21.894 30.2325 20.7063 29.4526C19.5185 28.6727 16.5952 31.0261 14.177 34.709C11.7587 38.3919 10.7611 42.0097 11.9488 42.7897C13.1366 43.5696 16.0598 41.2163 18.4782 37.5333Z" fill="white"/>
  <path d="M12.0771 32.2493C16.1028 30.4587 18.898 27.9546 18.3205 26.6563C17.743 25.358 14.0115 25.7572 9.98583 27.5479C5.9602 29.3385 3.16494 31.8425 3.74243 33.1408C4.31991 34.4391 8.05147 34.04 12.0771 32.2493Z" fill="white"/>
  <path d="M17.8373 23.0155C18.0535 21.6111 14.6985 19.9293 10.344 19.2591C5.98931 18.5888 2.28396 19.184 2.06781 20.5884C1.85165 21.9927 5.20655 23.6745 9.56118 24.3447C13.9158 25.015 17.6212 24.4198 17.8373 23.0155Z" fill="white"/>
  <path d="M19.4008 19.6699C20.3418 18.6053 18.4283 15.3769 15.1269 12.4592C11.8256 9.54147 8.38651 8.0393 7.44554 9.104C6.50457 10.1687 8.41804 13.3971 11.7194 16.3148C15.0208 19.2326 18.4599 20.7347 19.4008 19.6699Z" fill="white"/>
  <path d="M22.5144 17.7147C23.8816 17.3278 24.0175 13.5774 22.8178 9.33796C21.6182 5.09851 19.5373 1.9754 18.1701 2.36229C16.8029 2.74918 16.667 6.49955 17.8666 10.739C19.0663 14.9784 21.1472 18.1016 22.5144 17.7147Z" fill="white"/>
  <path d="M30.9691 10.871C32.2521 6.65598 32.1903 2.90365 30.831 2.48988C29.4716 2.0761 27.3296 5.15757 26.0465 9.37253C24.7636 13.5875 24.8254 17.3398 26.1848 17.7536C27.5441 18.1673 29.6862 15.0859 30.9691 10.871Z" fill="white"/>
  <path d="M37.0104 16.5663C40.3682 13.7136 42.3445 10.5233 41.4244 9.44041C40.5044 8.35753 37.0366 9.79222 33.6789 12.6448C30.3212 15.4974 28.345 18.6878 29.265 19.7707C30.1849 20.8535 33.6527 19.4189 37.0104 16.5663Z" fill="white"/>
  <path d="M39.008 24.6258C43.375 24.0415 46.7624 22.4262 46.5739 21.0178C46.3856 19.6095 42.6926 18.9414 38.3256 19.5256C33.9586 20.1099 30.5712 21.7252 30.7596 23.1336C30.9481 24.5419 34.6409 25.2101 39.008 24.6258Z" fill="white"/>
  <path d="M44.6415 33.5433C45.2444 32.2568 42.4991 29.6981 38.5096 27.8284C34.5201 25.9587 30.7971 25.4861 30.1941 26.7727C29.5912 28.0593 32.3365 30.618 36.326 32.4877C40.3155 34.3573 44.0385 34.83 44.6415 33.5433Z" fill="white"/>
  <path d="M36.2496 43.0367C37.4525 42.2804 36.5265 38.6435 34.1813 34.9137C31.8361 31.1838 28.9597 28.7733 27.7569 29.5296C26.554 30.2859 27.48 33.9227 29.8252 37.6526C32.1704 41.3825 35.0467 43.7931 36.2496 43.0367Z" fill="white"/>
</svg>