<svg xmlns="http://www.w3.org/2000/svg" width="48" height="48" viewBox="0 0 48 48" fill="none">
  <g clip-path="url(#clip0_302_88)">
    <path fill-rule="evenodd" clip-rule="evenodd" d="M30.6613 14.0224C28.6879 12.7038 26.3678 12 23.9944 12V0C28.7412 0 33.3813 1.40758 37.3281 4.04473C41.2749 6.68188 44.351 10.4302 46.1676 14.8156C47.984 19.201 48.4593 24.0266 47.5333 28.6822C46.6072 33.3377 44.3215 37.6141 40.965 40.9705C37.6086 44.327 33.3321 46.6128 28.6766 47.5388C24.0211 48.4649 19.1954 47.9896 14.81 46.1731C10.4246 44.3566 6.67632 41.2805 4.03918 37.3337C1.40202 33.3869 -0.0055542 28.7467 -0.0055542 24H11.9944C11.9944 26.3734 12.6982 28.6934 14.0168 30.6668C15.3354 32.6402 17.2095 34.1783 19.4023 35.0866C21.5949 35.9948 24.0078 36.2324 26.3355 35.7694C28.6633 35.3064 30.8014 34.1635 32.4798 32.4853C34.158 30.807 35.3008 28.6688 35.7638 26.3411C36.2269 24.0133 35.9893 21.6005 35.081 19.4078C34.1727 17.2151 32.6347 15.3409 30.6613 14.0224Z" fill="white"/>
    <path fill-rule="evenodd" clip-rule="evenodd" d="M11.9944 5.1975e-06C11.9944 1.57587 11.6841 3.1363 11.081 4.5922C10.4779 6.04811 9.59403 7.37098 8.47972 8.48529C7.36543 9.5996 6.04256 10.4835 4.58665 11.0866C3.13074 11.6896 1.5703 12 -0.00555367 12L-0.0055542 24C3.14617 24 6.26703 23.3792 9.17885 22.1731C12.0907 20.967 14.7364 19.1992 16.965 16.9705C19.1936 14.742 20.9614 12.0962 22.1676 9.18441C23.3737 6.27258 23.9944 3.15172 23.9944 0L11.9944 5.1975e-06Z" fill="white"/>
  </g>
  <defs>
    <clipPath id="clip0_302_88">
      <rect width="48" height="48" fill="white" transform="translate(-0.0055542)"/>
    </clipPath>
  </defs>
</svg>