<svg xmlns="http://www.w3.org/2000/svg" width="50" height="48" viewBox="0 0 50 48" fill="none">
  <path d="M24.9834 12.75C24.9834 18.9632 19.9466 24 13.7334 24H2.4834V12.75C2.4834 6.53679 7.52019 1.5 13.7334 1.5C19.9466 1.5 24.9834 6.53679 24.9834 12.75Z" fill="white"/>
  <path d="M24.9834 35.25C24.9834 29.0368 30.0202 24 36.2334 24H47.4834V35.25C47.4834 41.4632 42.4466 46.5 36.2334 46.5C30.0202 46.5 24.9834 41.4632 24.9834 35.25Z" fill="white"/>
  <path d="M2.4834 35.25C2.4834 41.4632 7.52019 46.5 13.7334 46.5H24.9834V35.25C24.9834 29.0368 19.9466 24 13.7334 24C7.52019 24 2.4834 29.0368 2.4834 35.25Z" fill="white"/>
  <path d="M47.4834 12.75C47.4834 6.53679 42.4466 1.5 36.2334 1.5H24.9834V12.75C24.9834 18.9632 30.0202 24 36.2334 24C42.4466 24 47.4834 18.9632 47.4834 12.75Z" fill="white"/>
</svg>