<svg xmlns="http://www.w3.org/2000/svg" width="50" height="50" viewBox="0 0 50 50" fill="none">
  <path d="M5 21.6667H18.3333C19.2174 21.6667 20.0652 21.3155 20.6904 20.6904C21.3155 20.0652 21.6667 19.2174 21.6667 18.3333V8.33333C21.6667 7.44928 21.3155 6.60143 20.6904 5.97631C20.0652 5.35119 19.2174 5 18.3333 5H8.33333C7.44928 5 6.60143 5.35119 5.97631 5.97631C5.35119 6.60143 5 7.44928 5 8.33333V21.6667ZM5 21.6667V33.3333C5 36.4275 6.22916 39.395 8.41709 41.5829C10.605 43.7708 13.5725 45 16.6667 45M28.3333 21.6667H41.6667C42.5507 21.6667 43.3986 21.3155 44.0237 20.6904C44.6488 20.0652 45 19.2174 45 18.3333V8.33333C45 7.44928 44.6488 6.60143 44.0237 5.97631C43.3986 5.35119 42.5507 5 41.6667 5H31.6667C30.7826 5 29.9348 5.35119 29.3096 5.97631C28.6845 6.60143 28.3333 7.44928 28.3333 8.33333V21.6667ZM28.3333 21.6667V33.3333C28.3333 36.4275 29.5625 39.395 31.7504 41.5829C33.9383 43.7708 36.9058 45 40 45" stroke="#3463E5" stroke-width="3"/>
</svg>